<svg width="512" height="512" viewBox="0 0 512 512" fill="none" xmlns="http://www.w3.org/2000/svg">
<path fill-rule="evenodd" clip-rule="evenodd" d="M51.9753 107.631C139.007 88.1465 224.276 46.5334 256.331 28C288.386 46.5334 373.655 88.1465 460.687 107.631C475.333 237.278 408.659 426.56 256.331 483.132C104.003 426.56 37.329 237.278 51.9753 107.631Z" fill="url(#paint0_linear_70_555)" stroke="white" stroke-width="7.40416"/>
<path d="M138.409 174.73C137.436 171.554 147.576 159.547 152.768 153.94L153.781 152.896C159.234 147.543 170.94 137.056 174.143 137.935C178.146 139.034 194.355 157.894 211.778 151.919L212.253 151.761C226.669 145.251 228.319 118.419 230.266 114.753C231.824 111.819 247.485 110.499 255.121 110.205L256.575 110.184C264.216 110.254 279.909 111.116 281.552 114.002C283.606 117.61 283.303 143.98 298.191 150.342L299.036 150.764L300.092 151.186C316.014 158.356 334.196 139.249 338.174 138.064C341.357 137.116 353.287 147.347 358.854 152.582L359.89 153.603C365.202 159.096 375.599 170.882 374.695 174.078C373.566 178.073 354.582 194.138 360.424 211.606L360.578 212.082C366.979 226.547 393.796 228.402 397.448 230.378C400.369 231.958 401.57 247.628 401.805 255.266L401.816 256.721C401.687 264.361 400.705 280.047 397.807 281.668C394.183 283.694 367.667 283.274 361.192 298.113L360.957 298.575C355.254 313.33 372.905 333.604 374.091 337.583C375.039 340.766 364.807 352.696 359.573 358.263L358.551 359.299C353.058 364.611 341.272 375.008 338.076 374.104C334.081 372.975 317.412 354.377 300.549 359.833L300.194 360.257C282.772 369.373 283.874 393.475 281.899 397.126C280.318 400.048 264.648 401.249 257.01 401.484L255.556 401.494C247.915 401.366 232.229 400.384 230.608 397.485C228.582 393.861 230.647 369.079 214.164 360.858L213.718 360.63C198.964 354.927 178.689 372.578 174.71 373.764C171.527 374.712 159.597 364.48 154.03 359.246L152.995 358.225C147.683 352.731 137.286 340.946 138.189 337.75C139.319 333.755 158.366 315.302 152.452 300.231L152.291 299.737C145.89 285.272 119.072 283.417 115.421 281.442C112.499 279.861 111.299 264.191 111.063 256.553L111.053 255.098C111.182 247.458 112.163 231.772 115.062 230.151C118.686 228.125 146.538 225.323 151.818 213.707L151.84 213.637C157.943 197.443 139.624 178.7 138.409 174.73Z" fill="white"/>
<circle cx="256.184" cy="256.101" r="83.6844" fill="#4944DA"/>
<path d="M256.923 302.67C256.907 272.491 227.595 258.176 212.914 255.973C212.901 255.971 212.892 255.959 212.892 255.946C212.892 255.932 212.901 255.921 212.914 255.919C227.595 253.707 256.908 231.465 256.923 201.281C256.923 201.268 256.933 201.257 256.946 201.257C256.959 201.257 256.97 201.268 256.97 201.281C256.985 231.465 286.298 253.707 300.979 255.919C300.992 255.921 301.001 255.932 301.001 255.946C301.001 255.959 300.992 255.971 300.978 255.973C286.298 258.176 256.985 272.491 256.97 302.67C256.97 302.683 256.959 302.694 256.946 302.694C256.933 302.694 256.923 302.683 256.923 302.67Z" fill="white" stroke="white" stroke-width="6.66375"/>
<rect x="253.614" y="356.746" width="82.9266" height="6.66375" transform="rotate(-90 253.614 356.746)" fill="white"/>
<defs>
<linearGradient id="paint0_linear_70_555" x1="462.662" y1="255.566" x2="50" y2="255.566" gradientUnits="userSpaceOnUse">
<stop offset="0.283654" stop-color="#4944D9"/>
<stop offset="0.658654" stop-color="#1E41B2"/>
</linearGradient>
</defs>
</svg>
